<svg width="512" height="512" viewBox="0 0 512 512" fill="none" xmlns="http://www.w3.org/2000/svg">
<path d="M400 0H112C50.144 0 0 50.144 0 112V400C0 461.856 50.144 512 112 512H400C461.856 512 512 461.856 512 400V112C512 50.144 461.856 0 400 0Z" fill="#FF4B55"/>
<path d="M340.477 221.684L356.14 242.173L380.596 233.987C381.963 233.529 383.127 235.076 382.308 236.263L367.661 257.49L383.004 278.22C383.862 279.379 382.751 280.963 381.369 280.551L356.654 273.181L341.68 294.179C340.843 295.353 338.993 294.786 338.958 293.344L338.33 267.562L313.733 259.81C312.358 259.376 312.325 257.442 313.686 256.963L338.012 248.399L337.784 222.61C337.771 221.167 339.601 220.539 340.477 221.684Z" fill="#F5F5F5"/>
<path d="M253.863 335.906C209.724 335.906 173.918 300.1 173.918 255.921C173.918 211.823 209.724 175.937 253.863 175.937C270.285 175.937 285.43 180.988 298.05 189.536C299.983 190.845 302.189 188.305 300.57 186.623C281.708 167.012 255.011 155.049 225.412 156.059C174.559 157.794 132.46 198.566 129.211 249.345C125.489 307.508 171.543 355.844 228.883 355.844C257.128 355.844 282.512 344.036 300.64 325.156C302.242 323.488 300.031 320.987 298.117 322.284C285.484 330.849 270.315 335.906 253.863 335.906Z" fill="#F5F5F5"/>
</svg>
